<mxfile host="app.diagrams.net" agent="Mozilla/5.0 (Windows NT 10.0; Win64; x64) AppleWebKit/537.36 (KHTML, like Gecko) Chrome/138.0.0.0 Safari/537.36" version="25.0.3">
  <diagram name="Page-1" id="sAh0_OjeJriuWlCXpD6U">
    <mxGraphModel dx="2840" dy="1763" grid="1" gridSize="10" guides="1" tooltips="1" connect="1" arrows="1" fold="1" page="1" pageScale="1" pageWidth="1100" pageHeight="850" math="0" shadow="0">
      <root>
        <mxCell id="0" />
        <mxCell id="1" parent="0" />
        <mxCell id="5ei2r8V7DqKCzxqT37iV-101" style="rounded=0;orthogonalLoop=1;jettySize=auto;html=1;exitX=0;exitY=1;exitDx=0;exitDy=0;entryX=1;entryY=0.5;entryDx=0;entryDy=0;endArrow=none;endFill=0;" edge="1" parent="1" source="5ei2r8V7DqKCzxqT37iV-1" target="5ei2r8V7DqKCzxqT37iV-100">
          <mxGeometry relative="1" as="geometry" />
        </mxCell>
        <mxCell id="5ei2r8V7DqKCzxqT37iV-109" style="rounded=0;orthogonalLoop=1;jettySize=auto;html=1;exitX=0.5;exitY=1;exitDx=0;exitDy=0;entryX=0.5;entryY=0;entryDx=0;entryDy=0;endArrow=none;endFill=0;" edge="1" parent="1" source="5ei2r8V7DqKCzxqT37iV-1" target="5ei2r8V7DqKCzxqT37iV-108">
          <mxGeometry relative="1" as="geometry" />
        </mxCell>
        <mxCell id="5ei2r8V7DqKCzxqT37iV-1" value="&lt;font style=&quot;font-size: 20px;&quot;&gt;User&lt;/font&gt;" style="rounded=0;whiteSpace=wrap;html=1;" vertex="1" parent="1">
          <mxGeometry x="540" y="310" width="120" height="60" as="geometry" />
        </mxCell>
        <mxCell id="5ei2r8V7DqKCzxqT37iV-18" style="rounded=0;orthogonalLoop=1;jettySize=auto;html=1;exitX=0.5;exitY=1;exitDx=0;exitDy=0;entryX=0.25;entryY=0;entryDx=0;entryDy=0;endArrow=none;endFill=0;" edge="1" parent="1" source="5ei2r8V7DqKCzxqT37iV-2" target="5ei2r8V7DqKCzxqT37iV-1">
          <mxGeometry relative="1" as="geometry" />
        </mxCell>
        <mxCell id="5ei2r8V7DqKCzxqT37iV-2" value="&lt;u&gt;&lt;font style=&quot;font-size: 16px;&quot;&gt;user_id&lt;/font&gt;&lt;/u&gt;" style="ellipse;whiteSpace=wrap;html=1;" vertex="1" parent="1">
          <mxGeometry x="530" y="110" width="105" height="70" as="geometry" />
        </mxCell>
        <mxCell id="5ei2r8V7DqKCzxqT37iV-17" style="rounded=0;orthogonalLoop=1;jettySize=auto;html=1;exitX=0;exitY=1;exitDx=0;exitDy=0;entryX=0.75;entryY=0;entryDx=0;entryDy=0;endArrow=none;endFill=0;" edge="1" parent="1" source="5ei2r8V7DqKCzxqT37iV-4" target="5ei2r8V7DqKCzxqT37iV-1">
          <mxGeometry relative="1" as="geometry" />
        </mxCell>
        <mxCell id="5ei2r8V7DqKCzxqT37iV-4" value="&lt;span style=&quot;font-size: 16px;&quot;&gt;F_name&lt;/span&gt;" style="ellipse;whiteSpace=wrap;html=1;" vertex="1" parent="1">
          <mxGeometry x="650" y="140" width="105" height="70" as="geometry" />
        </mxCell>
        <mxCell id="5ei2r8V7DqKCzxqT37iV-16" style="rounded=0;orthogonalLoop=1;jettySize=auto;html=1;exitX=0;exitY=1;exitDx=0;exitDy=0;entryX=1;entryY=0.25;entryDx=0;entryDy=0;strokeColor=default;endArrow=none;endFill=0;" edge="1" parent="1" source="5ei2r8V7DqKCzxqT37iV-5" target="5ei2r8V7DqKCzxqT37iV-1">
          <mxGeometry relative="1" as="geometry" />
        </mxCell>
        <mxCell id="5ei2r8V7DqKCzxqT37iV-5" value="&lt;span style=&quot;font-size: 16px;&quot;&gt;L_name&lt;/span&gt;" style="ellipse;whiteSpace=wrap;html=1;" vertex="1" parent="1">
          <mxGeometry x="720" y="220" width="105" height="70" as="geometry" />
        </mxCell>
        <mxCell id="5ei2r8V7DqKCzxqT37iV-15" style="rounded=0;orthogonalLoop=1;jettySize=auto;html=1;exitX=0;exitY=0;exitDx=0;exitDy=0;entryX=1;entryY=0.5;entryDx=0;entryDy=0;endArrow=none;endFill=0;" edge="1" parent="1" source="5ei2r8V7DqKCzxqT37iV-6" target="5ei2r8V7DqKCzxqT37iV-1">
          <mxGeometry relative="1" as="geometry" />
        </mxCell>
        <mxCell id="5ei2r8V7DqKCzxqT37iV-6" value="&lt;span style=&quot;font-size: 16px;&quot;&gt;&lt;u&gt;email&lt;/u&gt;&lt;/span&gt;" style="ellipse;whiteSpace=wrap;html=1;" vertex="1" parent="1">
          <mxGeometry x="730" y="310" width="105" height="70" as="geometry" />
        </mxCell>
        <mxCell id="5ei2r8V7DqKCzxqT37iV-14" style="rounded=0;orthogonalLoop=1;jettySize=auto;html=1;exitX=0;exitY=0;exitDx=0;exitDy=0;entryX=1;entryY=0.75;entryDx=0;entryDy=0;endArrow=none;endFill=0;" edge="1" parent="1" source="5ei2r8V7DqKCzxqT37iV-7" target="5ei2r8V7DqKCzxqT37iV-1">
          <mxGeometry relative="1" as="geometry" />
        </mxCell>
        <mxCell id="5ei2r8V7DqKCzxqT37iV-7" value="&lt;span style=&quot;font-size: 16px;&quot;&gt;password&lt;/span&gt;" style="ellipse;whiteSpace=wrap;html=1;" vertex="1" parent="1">
          <mxGeometry x="690" y="390" width="105" height="70" as="geometry" />
        </mxCell>
        <mxCell id="5ei2r8V7DqKCzxqT37iV-9" value="&lt;span style=&quot;font-size: 16px;&quot;&gt;phone&lt;/span&gt;" style="ellipse;whiteSpace=wrap;html=1;" vertex="1" parent="1">
          <mxGeometry x="710" y="495.67" width="105" height="70" as="geometry" />
        </mxCell>
        <mxCell id="5ei2r8V7DqKCzxqT37iV-12" style="rounded=0;orthogonalLoop=1;jettySize=auto;html=1;entryX=0.25;entryY=1;entryDx=0;entryDy=0;endArrow=none;endFill=0;" edge="1" parent="1" source="5ei2r8V7DqKCzxqT37iV-10" target="5ei2r8V7DqKCzxqT37iV-1">
          <mxGeometry relative="1" as="geometry" />
        </mxCell>
        <mxCell id="5ei2r8V7DqKCzxqT37iV-10" value="&lt;font style=&quot;font-size: 16px;&quot;&gt;role&lt;/font&gt;" style="ellipse;shape=doubleEllipse;margin=3;whiteSpace=wrap;html=1;align=center;" vertex="1" parent="1">
          <mxGeometry x="440" y="490" width="137.5" height="65" as="geometry" />
        </mxCell>
        <mxCell id="5ei2r8V7DqKCzxqT37iV-13" style="rounded=0;orthogonalLoop=1;jettySize=auto;html=1;exitX=0;exitY=0;exitDx=0;exitDy=0;entryX=0.683;entryY=1.077;entryDx=0;entryDy=0;entryPerimeter=0;endArrow=none;endFill=0;" edge="1" parent="1" source="5ei2r8V7DqKCzxqT37iV-9" target="5ei2r8V7DqKCzxqT37iV-1">
          <mxGeometry relative="1" as="geometry" />
        </mxCell>
        <mxCell id="5ei2r8V7DqKCzxqT37iV-21" value="&lt;h3 style=&quot;box-sizing: border-box; margin-top: 30px; margin-bottom: 20px; font-weight: 500; line-height: 1.2; color: rgb(33, 37, 41); font-family: Poppins, sans-serif; text-align: start; background-color: rgb(255, 255, 255);&quot;&gt;&lt;font style=&quot;font-size: 20px;&quot;&gt;Property&lt;/font&gt;&lt;/h3&gt;&lt;ul style=&quot;box-sizing: border-box; padding-left: 2rem; margin-top: 10px; margin-bottom: 1rem; color: rgb(33, 37, 41); font-family: Poppins, sans-serif; font-size: 16px; text-align: start; background-color: rgb(255, 255, 255);&quot;&gt;&lt;/ul&gt;" style="rounded=0;whiteSpace=wrap;html=1;" vertex="1" parent="1">
          <mxGeometry x="-310" y="310" width="120" height="60" as="geometry" />
        </mxCell>
        <mxCell id="5ei2r8V7DqKCzxqT37iV-22" value="&lt;span style=&quot;box-sizing: border-box; color: rgb(33, 37, 41); font-family: Poppins, sans-serif; font-size: 16px; text-align: left; background-color: rgb(255, 255, 255);&quot;&gt;&lt;u&gt;property_id&lt;/u&gt;&lt;/span&gt;" style="ellipse;whiteSpace=wrap;html=1;" vertex="1" parent="1">
          <mxGeometry x="-380" y="150" width="105" height="70" as="geometry" />
        </mxCell>
        <mxCell id="5ei2r8V7DqKCzxqT37iV-23" value="&lt;span style=&quot;box-sizing: border-box; color: rgb(33, 37, 41); font-family: Poppins, sans-serif; font-size: 16px; text-align: left; background-color: rgb(255, 255, 255);&quot;&gt;host_id&lt;/span&gt;" style="ellipse;whiteSpace=wrap;html=1;" vertex="1" parent="1">
          <mxGeometry x="-240" y="150" width="105" height="70" as="geometry" />
        </mxCell>
        <mxCell id="5ei2r8V7DqKCzxqT37iV-30" style="rounded=0;orthogonalLoop=1;jettySize=auto;html=1;exitX=0;exitY=0.5;exitDx=0;exitDy=0;entryX=1;entryY=0.25;entryDx=0;entryDy=0;endArrow=none;endFill=0;" edge="1" parent="1" source="5ei2r8V7DqKCzxqT37iV-24" target="5ei2r8V7DqKCzxqT37iV-21">
          <mxGeometry relative="1" as="geometry" />
        </mxCell>
        <mxCell id="5ei2r8V7DqKCzxqT37iV-24" value="&lt;span style=&quot;box-sizing: border-box; color: rgb(33, 37, 41); font-family: Poppins, sans-serif; font-size: 16px; text-align: left; background-color: rgb(255, 255, 255);&quot;&gt;name&lt;/span&gt;" style="ellipse;whiteSpace=wrap;html=1;" vertex="1" parent="1">
          <mxGeometry x="-160" y="240" width="105" height="70" as="geometry" />
        </mxCell>
        <mxCell id="5ei2r8V7DqKCzxqT37iV-32" style="rounded=0;orthogonalLoop=1;jettySize=auto;html=1;exitX=1;exitY=0;exitDx=0;exitDy=0;entryX=0;entryY=0.75;entryDx=0;entryDy=0;endArrow=none;endFill=0;" edge="1" parent="1" source="5ei2r8V7DqKCzxqT37iV-25" target="5ei2r8V7DqKCzxqT37iV-21">
          <mxGeometry relative="1" as="geometry" />
        </mxCell>
        <mxCell id="5ei2r8V7DqKCzxqT37iV-25" value="&lt;font style=&quot;font-size: 16px;&quot;&gt;&lt;span style=&quot;box-sizing: border-box; color: rgb(33, 37, 41); font-family: Poppins, sans-serif; text-align: left; background-color: rgb(255, 255, 255);&quot;&gt;location&lt;/span&gt;&lt;/font&gt;" style="ellipse;whiteSpace=wrap;html=1;" vertex="1" parent="1">
          <mxGeometry x="-430" y="370" width="105" height="70" as="geometry" />
        </mxCell>
        <mxCell id="5ei2r8V7DqKCzxqT37iV-33" style="rounded=0;orthogonalLoop=1;jettySize=auto;html=1;exitX=1;exitY=1;exitDx=0;exitDy=0;entryX=0;entryY=0.25;entryDx=0;entryDy=0;endArrow=none;endFill=0;" edge="1" parent="1" source="5ei2r8V7DqKCzxqT37iV-26" target="5ei2r8V7DqKCzxqT37iV-21">
          <mxGeometry relative="1" as="geometry" />
        </mxCell>
        <mxCell id="5ei2r8V7DqKCzxqT37iV-26" value="&lt;span style=&quot;box-sizing: border-box; color: rgb(33, 37, 41); font-family: Poppins, sans-serif; text-align: left; background-color: rgb(255, 255, 255);&quot;&gt;&lt;font style=&quot;font-size: 14px;&quot;&gt;price&lt;em style=&quot;box-sizing: border-box;&quot;&gt;per&lt;/em&gt;night&lt;/font&gt;&lt;/span&gt;" style="ellipse;whiteSpace=wrap;html=1;" vertex="1" parent="1">
          <mxGeometry x="-430" y="240" width="105" height="70" as="geometry" />
        </mxCell>
        <mxCell id="5ei2r8V7DqKCzxqT37iV-31" style="rounded=0;orthogonalLoop=1;jettySize=auto;html=1;exitX=0.5;exitY=0;exitDx=0;exitDy=0;entryX=0.5;entryY=1;entryDx=0;entryDy=0;endArrow=none;endFill=0;" edge="1" parent="1" source="5ei2r8V7DqKCzxqT37iV-27" target="5ei2r8V7DqKCzxqT37iV-21">
          <mxGeometry relative="1" as="geometry" />
        </mxCell>
        <mxCell id="5ei2r8V7DqKCzxqT37iV-27" value="&lt;span style=&quot;box-sizing: border-box; color: rgb(33, 37, 41); font-family: Poppins, sans-serif; font-size: 16px; text-align: left; background-color: rgb(255, 255, 255);&quot;&gt;description&lt;/span&gt;" style="ellipse;whiteSpace=wrap;html=1;" vertex="1" parent="1">
          <mxGeometry x="-310" y="410" width="105" height="70" as="geometry" />
        </mxCell>
        <mxCell id="5ei2r8V7DqKCzxqT37iV-28" style="rounded=0;orthogonalLoop=1;jettySize=auto;html=1;exitX=1;exitY=1;exitDx=0;exitDy=0;entryX=0.197;entryY=0.023;entryDx=0;entryDy=0;entryPerimeter=0;endArrow=none;endFill=0;" edge="1" parent="1" source="5ei2r8V7DqKCzxqT37iV-22" target="5ei2r8V7DqKCzxqT37iV-21">
          <mxGeometry relative="1" as="geometry" />
        </mxCell>
        <mxCell id="5ei2r8V7DqKCzxqT37iV-29" style="rounded=0;orthogonalLoop=1;jettySize=auto;html=1;exitX=0;exitY=1;exitDx=0;exitDy=0;entryX=0.577;entryY=-0.057;entryDx=0;entryDy=0;entryPerimeter=0;endArrow=none;endFill=0;" edge="1" parent="1" source="5ei2r8V7DqKCzxqT37iV-23" target="5ei2r8V7DqKCzxqT37iV-21">
          <mxGeometry relative="1" as="geometry" />
        </mxCell>
        <mxCell id="5ei2r8V7DqKCzxqT37iV-44" style="rounded=0;orthogonalLoop=1;jettySize=auto;html=1;exitX=1;exitY=0.5;exitDx=0;exitDy=0;entryX=0;entryY=1;entryDx=0;entryDy=0;endArrow=none;endFill=0;" edge="1" parent="1" source="5ei2r8V7DqKCzxqT37iV-34" target="5ei2r8V7DqKCzxqT37iV-41">
          <mxGeometry relative="1" as="geometry" />
        </mxCell>
        <mxCell id="5ei2r8V7DqKCzxqT37iV-34" value="&lt;h3 style=&quot;box-sizing: border-box; margin-top: 30px; margin-bottom: 20px; line-height: 1.2; color: rgb(33, 37, 41); font-family: Poppins, sans-serif; text-align: start; background-color: rgb(255, 255, 255);&quot;&gt;&lt;font style=&quot;font-size: 20px; font-weight: normal;&quot;&gt;Booking&lt;/font&gt;&lt;/h3&gt;&lt;ul style=&quot;box-sizing: border-box; padding-left: 2rem; margin-top: 10px; margin-bottom: 1rem; color: rgb(33, 37, 41); font-family: Poppins, sans-serif; font-size: 16px; text-align: start; background-color: rgb(255, 255, 255);&quot;&gt;&lt;/ul&gt;" style="rounded=0;whiteSpace=wrap;html=1;" vertex="1" parent="1">
          <mxGeometry x="-565" y="669" width="120" height="60" as="geometry" />
        </mxCell>
        <mxCell id="5ei2r8V7DqKCzxqT37iV-42" style="rounded=0;orthogonalLoop=1;jettySize=auto;html=1;exitX=1;exitY=1;exitDx=0;exitDy=0;entryX=0;entryY=0;entryDx=0;entryDy=0;endArrow=none;endFill=0;" edge="1" parent="1" source="5ei2r8V7DqKCzxqT37iV-35" target="5ei2r8V7DqKCzxqT37iV-34">
          <mxGeometry relative="1" as="geometry" />
        </mxCell>
        <mxCell id="5ei2r8V7DqKCzxqT37iV-35" value="&lt;span style=&quot;box-sizing: border-box; color: rgb(33, 37, 41); font-family: Poppins, sans-serif; font-size: 16px; text-align: left; background-color: rgb(255, 255, 255);&quot;&gt;&lt;u&gt;booking_id&lt;/u&gt;&lt;/span&gt;" style="ellipse;whiteSpace=wrap;html=1;" vertex="1" parent="1">
          <mxGeometry x="-690" y="550" width="105" height="70" as="geometry" />
        </mxCell>
        <mxCell id="5ei2r8V7DqKCzxqT37iV-48" style="rounded=0;orthogonalLoop=1;jettySize=auto;html=1;exitX=0;exitY=1;exitDx=0;exitDy=0;entryX=0.75;entryY=0;entryDx=0;entryDy=0;endArrow=none;endFill=0;" edge="1" parent="1" source="5ei2r8V7DqKCzxqT37iV-36" target="5ei2r8V7DqKCzxqT37iV-34">
          <mxGeometry relative="1" as="geometry" />
        </mxCell>
        <mxCell id="5ei2r8V7DqKCzxqT37iV-36" value="&lt;span style=&quot;box-sizing: border-box; color: rgb(33, 37, 41); font-family: Poppins, sans-serif; font-size: 16px; text-align: left; background-color: rgb(255, 255, 255);&quot;&gt;property_id&lt;/span&gt;" style="ellipse;whiteSpace=wrap;html=1;" vertex="1" parent="1">
          <mxGeometry x="-480" y="555" width="105" height="70" as="geometry" />
        </mxCell>
        <mxCell id="5ei2r8V7DqKCzxqT37iV-37" value="&lt;span style=&quot;box-sizing: border-box; color: rgb(33, 37, 41); font-family: Poppins, sans-serif; font-size: 16px; text-align: left; background-color: rgb(255, 255, 255);&quot;&gt;start_date&lt;/span&gt;" style="ellipse;whiteSpace=wrap;html=1;" vertex="1" parent="1">
          <mxGeometry x="-740" y="790" width="105" height="70" as="geometry" />
        </mxCell>
        <mxCell id="5ei2r8V7DqKCzxqT37iV-46" style="rounded=0;orthogonalLoop=1;jettySize=auto;html=1;exitX=0;exitY=0;exitDx=0;exitDy=0;entryX=0.5;entryY=1;entryDx=0;entryDy=0;endArrow=none;endFill=0;" edge="1" parent="1" source="5ei2r8V7DqKCzxqT37iV-38" target="5ei2r8V7DqKCzxqT37iV-34">
          <mxGeometry relative="1" as="geometry" />
        </mxCell>
        <mxCell id="5ei2r8V7DqKCzxqT37iV-38" value="&lt;span style=&quot;box-sizing: border-box; color: rgb(33, 37, 41); font-family: Poppins, sans-serif; font-size: 16px; text-align: left; background-color: rgb(255, 255, 255);&quot;&gt;end_date&lt;/span&gt;" style="ellipse;whiteSpace=wrap;html=1;" vertex="1" parent="1">
          <mxGeometry x="-462.5" y="800" width="105" height="70" as="geometry" />
        </mxCell>
        <mxCell id="5ei2r8V7DqKCzxqT37iV-47" style="rounded=0;orthogonalLoop=1;jettySize=auto;html=1;exitX=0;exitY=0;exitDx=0;exitDy=0;entryX=1;entryY=1;entryDx=0;entryDy=0;endArrow=none;endFill=0;" edge="1" parent="1" source="5ei2r8V7DqKCzxqT37iV-39" target="5ei2r8V7DqKCzxqT37iV-34">
          <mxGeometry relative="1" as="geometry" />
        </mxCell>
        <mxCell id="5ei2r8V7DqKCzxqT37iV-39" value="&lt;span style=&quot;box-sizing: border-box; color: rgb(33, 37, 41); font-family: Poppins, sans-serif; font-size: 16px; text-align: left; background-color: rgb(255, 255, 255);&quot;&gt;total_price&lt;/span&gt;" style="ellipse;whiteSpace=wrap;html=1;" vertex="1" parent="1">
          <mxGeometry x="-380" y="734" width="105" height="70" as="geometry" />
        </mxCell>
        <mxCell id="5ei2r8V7DqKCzxqT37iV-43" style="rounded=0;orthogonalLoop=1;jettySize=auto;html=1;exitX=1;exitY=0.5;exitDx=0;exitDy=0;entryX=0;entryY=0.5;entryDx=0;entryDy=0;endArrow=none;endFill=0;" edge="1" parent="1" source="5ei2r8V7DqKCzxqT37iV-40" target="5ei2r8V7DqKCzxqT37iV-34">
          <mxGeometry relative="1" as="geometry" />
        </mxCell>
        <mxCell id="5ei2r8V7DqKCzxqT37iV-40" value="&lt;span style=&quot;box-sizing: border-box; color: rgb(33, 37, 41); font-family: Poppins, sans-serif; font-size: 16px; text-align: left; background-color: rgb(255, 255, 255);&quot;&gt;user_id&lt;/span&gt;" style="ellipse;whiteSpace=wrap;html=1;" vertex="1" parent="1">
          <mxGeometry x="-730" y="664" width="105" height="70" as="geometry" />
        </mxCell>
        <mxCell id="5ei2r8V7DqKCzxqT37iV-41" value="&lt;span style=&quot;box-sizing: border-box; color: rgb(33, 37, 41); font-family: Poppins, sans-serif; font-size: 16px; text-align: left; background-color: rgb(255, 255, 255);&quot;&gt;status&lt;/span&gt;" style="ellipse;whiteSpace=wrap;html=1;" vertex="1" parent="1">
          <mxGeometry x="-390" y="635" width="105" height="70" as="geometry" />
        </mxCell>
        <mxCell id="5ei2r8V7DqKCzxqT37iV-45" style="rounded=0;orthogonalLoop=1;jettySize=auto;html=1;exitX=1;exitY=0;exitDx=0;exitDy=0;entryX=0.161;entryY=0.989;entryDx=0;entryDy=0;entryPerimeter=0;endArrow=none;endFill=0;" edge="1" parent="1" source="5ei2r8V7DqKCzxqT37iV-37" target="5ei2r8V7DqKCzxqT37iV-34">
          <mxGeometry relative="1" as="geometry" />
        </mxCell>
        <mxCell id="5ei2r8V7DqKCzxqT37iV-49" value="&lt;h3 style=&quot;box-sizing: border-box; margin-top: 30px; margin-bottom: 20px; font-weight: 500; line-height: 1.2; color: rgb(33, 37, 41); font-family: Poppins, sans-serif; text-align: start; background-color: rgb(255, 255, 255);&quot;&gt;&lt;font style=&quot;font-size: 20px;&quot;&gt;Payment&lt;/font&gt;&lt;/h3&gt;&lt;ul style=&quot;box-sizing: border-box; padding-left: 2rem; margin-top: 10px; margin-bottom: 1rem; color: rgb(33, 37, 41); font-family: Poppins, sans-serif; font-size: 16px; text-align: start; background-color: rgb(255, 255, 255);&quot;&gt;&lt;/ul&gt;" style="rounded=0;whiteSpace=wrap;html=1;" vertex="1" parent="1">
          <mxGeometry x="-582.5" y="1071" width="120" height="60" as="geometry" />
        </mxCell>
        <mxCell id="5ei2r8V7DqKCzxqT37iV-59" style="rounded=0;orthogonalLoop=1;jettySize=auto;html=1;exitX=1;exitY=1;exitDx=0;exitDy=0;entryX=0.25;entryY=0;entryDx=0;entryDy=0;endArrow=none;endFill=0;" edge="1" parent="1" source="5ei2r8V7DqKCzxqT37iV-50" target="5ei2r8V7DqKCzxqT37iV-49">
          <mxGeometry relative="1" as="geometry" />
        </mxCell>
        <mxCell id="5ei2r8V7DqKCzxqT37iV-50" value="&lt;span style=&quot;box-sizing: border-box; color: rgb(33, 37, 41); font-family: Poppins, sans-serif; font-size: 16px; text-align: left; background-color: rgb(255, 255, 255);&quot;&gt;&lt;u&gt;payment_id&lt;/u&gt;&lt;/span&gt;" style="ellipse;whiteSpace=wrap;html=1;" vertex="1" parent="1">
          <mxGeometry x="-687.5" y="981" width="105" height="70" as="geometry" />
        </mxCell>
        <mxCell id="5ei2r8V7DqKCzxqT37iV-58" style="rounded=0;orthogonalLoop=1;jettySize=auto;html=1;exitX=0;exitY=1;exitDx=0;exitDy=0;entryX=0.75;entryY=0;entryDx=0;entryDy=0;endArrow=none;endFill=0;" edge="1" parent="1" source="5ei2r8V7DqKCzxqT37iV-51" target="5ei2r8V7DqKCzxqT37iV-49">
          <mxGeometry relative="1" as="geometry" />
        </mxCell>
        <mxCell id="5ei2r8V7DqKCzxqT37iV-51" value="&lt;span style=&quot;box-sizing: border-box; color: rgb(33, 37, 41); font-family: Poppins, sans-serif; font-size: 16px; text-align: left; background-color: rgb(255, 255, 255);&quot;&gt;booking_id&lt;/span&gt;" style="ellipse;whiteSpace=wrap;html=1;" vertex="1" parent="1">
          <mxGeometry x="-470" y="960" width="105" height="70" as="geometry" />
        </mxCell>
        <mxCell id="5ei2r8V7DqKCzxqT37iV-60" value="" style="rounded=0;orthogonalLoop=1;jettySize=auto;html=1;endArrow=none;endFill=0;" edge="1" parent="1" source="5ei2r8V7DqKCzxqT37iV-52" target="5ei2r8V7DqKCzxqT37iV-49">
          <mxGeometry relative="1" as="geometry" />
        </mxCell>
        <mxCell id="5ei2r8V7DqKCzxqT37iV-52" value="&lt;span style=&quot;box-sizing: border-box; color: rgb(33, 37, 41); font-family: Poppins, sans-serif; font-size: 16px; text-align: left; background-color: rgb(255, 255, 255);&quot;&gt;method&lt;/span&gt;" style="ellipse;whiteSpace=wrap;html=1;" vertex="1" parent="1">
          <mxGeometry x="-737.5" y="1121" width="105" height="70" as="geometry" />
        </mxCell>
        <mxCell id="5ei2r8V7DqKCzxqT37iV-56" value="" style="rounded=0;orthogonalLoop=1;jettySize=auto;html=1;endArrow=none;endFill=0;" edge="1" parent="1" source="5ei2r8V7DqKCzxqT37iV-53" target="5ei2r8V7DqKCzxqT37iV-49">
          <mxGeometry relative="1" as="geometry" />
        </mxCell>
        <mxCell id="5ei2r8V7DqKCzxqT37iV-53" value="&lt;span style=&quot;box-sizing: border-box; color: rgb(33, 37, 41); font-family: Poppins, sans-serif; font-size: 16px; text-align: left; background-color: rgb(255, 255, 255);&quot;&gt;amount&lt;/span&gt;" style="ellipse;whiteSpace=wrap;html=1;" vertex="1" parent="1">
          <mxGeometry x="-407.5" y="1081" width="105" height="70" as="geometry" />
        </mxCell>
        <mxCell id="5ei2r8V7DqKCzxqT37iV-54" value="&lt;span style=&quot;box-sizing: border-box; color: rgb(33, 37, 41); font-family: Poppins, sans-serif; text-align: left; background-color: rgb(255, 255, 255);&quot;&gt;&lt;font style=&quot;font-size: 15px;&quot;&gt;payment_date&lt;/font&gt;&lt;/span&gt;" style="ellipse;whiteSpace=wrap;html=1;" vertex="1" parent="1">
          <mxGeometry x="-567.5" y="1201" width="105" height="70" as="geometry" />
        </mxCell>
        <mxCell id="5ei2r8V7DqKCzxqT37iV-55" style="rounded=0;orthogonalLoop=1;jettySize=auto;html=1;exitX=0;exitY=0;exitDx=0;exitDy=0;entryX=0.38;entryY=1.09;entryDx=0;entryDy=0;entryPerimeter=0;endArrow=none;endFill=0;" edge="1" parent="1" source="5ei2r8V7DqKCzxqT37iV-54" target="5ei2r8V7DqKCzxqT37iV-49">
          <mxGeometry relative="1" as="geometry" />
        </mxCell>
        <mxCell id="5ei2r8V7DqKCzxqT37iV-61" value="&lt;h3 style=&quot;box-sizing: border-box; margin-top: 30px; margin-bottom: 20px; font-weight: 500; line-height: 1.2; color: rgb(33, 37, 41); font-family: Poppins, sans-serif; text-align: start; background-color: rgb(255, 255, 255);&quot;&gt;&lt;ul style=&quot;box-sizing: border-box; padding-left: 2rem; margin-top: 10px; margin-bottom: 1rem; color: rgb(33, 37, 41); font-family: Poppins, sans-serif; font-size: 16px; font-style: normal; font-variant-ligatures: normal; font-variant-caps: normal; font-weight: 400; letter-spacing: normal; orphans: 2; text-align: start; text-indent: 0px; text-transform: none; widows: 2; word-spacing: 0px; -webkit-text-stroke-width: 0px; white-space: normal; background-color: rgb(255, 255, 255); text-decoration-thickness: initial; text-decoration-style: initial; text-decoration-color: initial;&quot;&gt;&lt;/ul&gt;&lt;/h3&gt;&lt;h3 style=&quot;box-sizing: border-box; margin-top: 30px; margin-bottom: 20px; line-height: 1.2; color: rgb(33, 37, 41); font-family: Poppins, sans-serif; font-style: normal; font-variant-ligatures: normal; font-variant-caps: normal; letter-spacing: normal; orphans: 2; text-align: start; text-indent: 0px; text-transform: none; widows: 2; word-spacing: 0px; -webkit-text-stroke-width: 0px; white-space: normal; background-color: rgb(255, 255, 255); text-decoration-thickness: initial; text-decoration-style: initial; text-decoration-color: initial;&quot;&gt;&lt;font style=&quot;font-size: 20px;&quot;&gt;Review&lt;/font&gt;&lt;/h3&gt;&lt;ul style=&quot;box-sizing: border-box; padding-left: 2rem; margin-top: 10px; margin-bottom: 1rem; color: rgb(33, 37, 41); font-family: Poppins, sans-serif; font-size: 16px; text-align: start; background-color: rgb(255, 255, 255);&quot;&gt;&lt;/ul&gt;" style="rounded=0;whiteSpace=wrap;html=1;" vertex="1" parent="1">
          <mxGeometry x="47.5" y="555" width="120" height="60" as="geometry" />
        </mxCell>
        <mxCell id="5ei2r8V7DqKCzxqT37iV-62" style="rounded=0;orthogonalLoop=1;jettySize=auto;html=1;exitX=1;exitY=1;exitDx=0;exitDy=0;entryX=0.25;entryY=0;entryDx=0;entryDy=0;endArrow=none;endFill=0;" edge="1" parent="1" source="5ei2r8V7DqKCzxqT37iV-63" target="5ei2r8V7DqKCzxqT37iV-61">
          <mxGeometry relative="1" as="geometry" />
        </mxCell>
        <mxCell id="5ei2r8V7DqKCzxqT37iV-63" value="&lt;span style=&quot;box-sizing: border-box; font-weight: bolder; color: rgb(33, 37, 41); font-family: Poppins, sans-serif; font-size: 16px; text-align: left; background-color: rgb(255, 255, 255);&quot;&gt;&lt;u&gt;review_id&lt;/u&gt;&lt;/span&gt;" style="ellipse;whiteSpace=wrap;html=1;" vertex="1" parent="1">
          <mxGeometry x="-10" y="425.67" width="105" height="70" as="geometry" />
        </mxCell>
        <mxCell id="5ei2r8V7DqKCzxqT37iV-64" style="rounded=0;orthogonalLoop=1;jettySize=auto;html=1;exitX=0;exitY=1;exitDx=0;exitDy=0;entryX=0.75;entryY=0;entryDx=0;entryDy=0;endArrow=none;endFill=0;" edge="1" parent="1" source="5ei2r8V7DqKCzxqT37iV-65" target="5ei2r8V7DqKCzxqT37iV-61">
          <mxGeometry relative="1" as="geometry" />
        </mxCell>
        <mxCell id="5ei2r8V7DqKCzxqT37iV-65" value="&lt;span style=&quot;box-sizing: border-box; font-weight: bolder; color: rgb(33, 37, 41); font-family: Poppins, sans-serif; font-size: 16px; text-align: left; background-color: rgb(255, 255, 255);&quot;&gt;property_id&lt;/span&gt;" style="ellipse;whiteSpace=wrap;html=1;" vertex="1" parent="1">
          <mxGeometry x="160" y="444" width="105" height="70" as="geometry" />
        </mxCell>
        <mxCell id="5ei2r8V7DqKCzxqT37iV-66" value="" style="rounded=0;orthogonalLoop=1;jettySize=auto;html=1;endArrow=none;endFill=0;" edge="1" parent="1" source="5ei2r8V7DqKCzxqT37iV-67" target="5ei2r8V7DqKCzxqT37iV-61">
          <mxGeometry relative="1" as="geometry" />
        </mxCell>
        <mxCell id="5ei2r8V7DqKCzxqT37iV-67" value="&lt;span style=&quot;box-sizing: border-box; font-weight: bolder; color: rgb(33, 37, 41); font-family: Poppins, sans-serif; font-size: 16px; text-align: left; background-color: rgb(255, 255, 255);&quot;&gt;comment&lt;/span&gt;" style="ellipse;whiteSpace=wrap;html=1;" vertex="1" parent="1">
          <mxGeometry x="-107.5" y="605" width="105" height="70" as="geometry" />
        </mxCell>
        <mxCell id="5ei2r8V7DqKCzxqT37iV-68" value="" style="rounded=0;orthogonalLoop=1;jettySize=auto;html=1;endArrow=none;endFill=0;" edge="1" parent="1" source="5ei2r8V7DqKCzxqT37iV-69" target="5ei2r8V7DqKCzxqT37iV-61">
          <mxGeometry relative="1" as="geometry" />
        </mxCell>
        <mxCell id="5ei2r8V7DqKCzxqT37iV-69" value="&lt;span style=&quot;box-sizing: border-box; font-weight: bolder; color: rgb(33, 37, 41); font-family: Poppins, sans-serif; font-size: 16px; text-align: left; background-color: rgb(255, 255, 255);&quot;&gt;user_id&lt;/span&gt;" style="ellipse;whiteSpace=wrap;html=1;" vertex="1" parent="1">
          <mxGeometry x="222.5" y="565" width="105" height="70" as="geometry" />
        </mxCell>
        <mxCell id="5ei2r8V7DqKCzxqT37iV-70" value="&lt;span style=&quot;box-sizing: border-box; font-weight: bolder; color: rgb(33, 37, 41); font-family: Poppins, sans-serif; font-size: 16px; text-align: left; background-color: rgb(255, 255, 255);&quot;&gt;rating&lt;/span&gt;" style="ellipse;whiteSpace=wrap;html=1;" vertex="1" parent="1">
          <mxGeometry x="62.5" y="685" width="105" height="70" as="geometry" />
        </mxCell>
        <mxCell id="5ei2r8V7DqKCzxqT37iV-71" style="rounded=0;orthogonalLoop=1;jettySize=auto;html=1;exitX=0;exitY=0;exitDx=0;exitDy=0;entryX=0.38;entryY=1.09;entryDx=0;entryDy=0;entryPerimeter=0;endArrow=none;endFill=0;" edge="1" parent="1" source="5ei2r8V7DqKCzxqT37iV-70" target="5ei2r8V7DqKCzxqT37iV-61">
          <mxGeometry relative="1" as="geometry" />
        </mxCell>
        <mxCell id="5ei2r8V7DqKCzxqT37iV-72" value="&lt;h3 style=&quot;box-sizing: border-box; margin-top: 30px; margin-bottom: 20px; font-weight: 500; line-height: 1.2; color: rgb(33, 37, 41); font-family: Poppins, sans-serif; text-align: start; background-color: rgb(255, 255, 255);&quot;&gt;&lt;ul style=&quot;box-sizing: border-box; padding-left: 2rem; margin-top: 10px; margin-bottom: 1rem; color: rgb(33, 37, 41); font-family: Poppins, sans-serif; font-size: 16px; font-style: normal; font-variant-ligatures: normal; font-variant-caps: normal; font-weight: 400; letter-spacing: normal; orphans: 2; text-align: start; text-indent: 0px; text-transform: none; widows: 2; word-spacing: 0px; -webkit-text-stroke-width: 0px; white-space: normal; background-color: rgb(255, 255, 255); text-decoration-thickness: initial; text-decoration-style: initial; text-decoration-color: initial;&quot;&gt;&lt;/ul&gt;&lt;/h3&gt;&lt;h3 style=&quot;box-sizing: border-box; margin-top: 30px; margin-bottom: 20px; line-height: 1.2; color: rgb(33, 37, 41); font-family: Poppins, sans-serif; text-align: start; background-color: rgb(255, 255, 255);&quot;&gt;&lt;span style=&quot;font-weight: normal;&quot;&gt;&lt;font style=&quot;font-size: 20px;&quot;&gt;Message&lt;/font&gt;&lt;/span&gt;&lt;/h3&gt;&lt;ul style=&quot;box-sizing: border-box; padding-left: 2rem; margin-top: 10px; margin-bottom: 1rem; color: rgb(33, 37, 41); font-family: Poppins, sans-serif; font-size: 16px; text-align: start; background-color: rgb(255, 255, 255);&quot;&gt;&lt;/ul&gt;" style="rounded=0;whiteSpace=wrap;html=1;" vertex="1" parent="1">
          <mxGeometry x="535" y="771" width="120" height="60" as="geometry" />
        </mxCell>
        <mxCell id="5ei2r8V7DqKCzxqT37iV-73" style="rounded=0;orthogonalLoop=1;jettySize=auto;html=1;exitX=1;exitY=1;exitDx=0;exitDy=0;entryX=0.25;entryY=0;entryDx=0;entryDy=0;endArrow=none;endFill=0;" edge="1" parent="1" source="5ei2r8V7DqKCzxqT37iV-74" target="5ei2r8V7DqKCzxqT37iV-72">
          <mxGeometry relative="1" as="geometry" />
        </mxCell>
        <mxCell id="5ei2r8V7DqKCzxqT37iV-74" value="&lt;span style=&quot;box-sizing: border-box; font-weight: bolder; color: rgb(33, 37, 41); font-family: Poppins, sans-serif; font-size: 16px; text-align: left; background-color: rgb(255, 255, 255);&quot;&gt;&lt;u&gt;message_id&lt;/u&gt;&lt;/span&gt;" style="ellipse;whiteSpace=wrap;html=1;" vertex="1" parent="1">
          <mxGeometry x="430" y="681" width="105" height="70" as="geometry" />
        </mxCell>
        <mxCell id="5ei2r8V7DqKCzxqT37iV-75" style="rounded=0;orthogonalLoop=1;jettySize=auto;html=1;exitX=0;exitY=1;exitDx=0;exitDy=0;entryX=0.75;entryY=0;entryDx=0;entryDy=0;endArrow=none;endFill=0;" edge="1" parent="1" source="5ei2r8V7DqKCzxqT37iV-76" target="5ei2r8V7DqKCzxqT37iV-72">
          <mxGeometry relative="1" as="geometry" />
        </mxCell>
        <mxCell id="5ei2r8V7DqKCzxqT37iV-76" value="&lt;span style=&quot;box-sizing: border-box; font-weight: bolder; color: rgb(33, 37, 41); font-family: Poppins, sans-serif; font-size: 16px; text-align: left; background-color: rgb(255, 255, 255);&quot;&gt;sender_id&lt;/span&gt;" style="ellipse;whiteSpace=wrap;html=1;" vertex="1" parent="1">
          <mxGeometry x="647.5" y="660" width="105" height="70" as="geometry" />
        </mxCell>
        <mxCell id="5ei2r8V7DqKCzxqT37iV-77" value="" style="rounded=0;orthogonalLoop=1;jettySize=auto;html=1;endArrow=none;endFill=0;" edge="1" parent="1" source="5ei2r8V7DqKCzxqT37iV-78" target="5ei2r8V7DqKCzxqT37iV-72">
          <mxGeometry relative="1" as="geometry" />
        </mxCell>
        <mxCell id="5ei2r8V7DqKCzxqT37iV-78" value="&lt;span style=&quot;box-sizing: border-box; font-weight: bolder; color: rgb(33, 37, 41); font-family: Poppins, sans-serif; font-size: 16px; text-align: left; background-color: rgb(255, 255, 255);&quot;&gt;comment&lt;/span&gt;" style="ellipse;whiteSpace=wrap;html=1;" vertex="1" parent="1">
          <mxGeometry x="380" y="821" width="105" height="70" as="geometry" />
        </mxCell>
        <mxCell id="5ei2r8V7DqKCzxqT37iV-79" value="" style="rounded=0;orthogonalLoop=1;jettySize=auto;html=1;endArrow=none;endFill=0;" edge="1" parent="1" source="5ei2r8V7DqKCzxqT37iV-80" target="5ei2r8V7DqKCzxqT37iV-72">
          <mxGeometry relative="1" as="geometry" />
        </mxCell>
        <mxCell id="5ei2r8V7DqKCzxqT37iV-80" value="&lt;span style=&quot;box-sizing: border-box; font-weight: bolder; color: rgb(33, 37, 41); font-family: Poppins, sans-serif; font-size: 16px; text-align: left; background-color: rgb(255, 255, 255);&quot;&gt;recipient_id&lt;/span&gt;" style="ellipse;whiteSpace=wrap;html=1;" vertex="1" parent="1">
          <mxGeometry x="710" y="781" width="105" height="70" as="geometry" />
        </mxCell>
        <mxCell id="5ei2r8V7DqKCzxqT37iV-81" value="&lt;span style=&quot;box-sizing: border-box; font-weight: bolder; color: rgb(33, 37, 41); font-family: Poppins, sans-serif; font-size: 16px; text-align: left; background-color: rgb(255, 255, 255);&quot;&gt;rating&lt;/span&gt;" style="ellipse;whiteSpace=wrap;html=1;" vertex="1" parent="1">
          <mxGeometry x="550" y="901" width="105" height="70" as="geometry" />
        </mxCell>
        <mxCell id="5ei2r8V7DqKCzxqT37iV-82" style="rounded=0;orthogonalLoop=1;jettySize=auto;html=1;exitX=0;exitY=0;exitDx=0;exitDy=0;entryX=0.38;entryY=1.09;entryDx=0;entryDy=0;entryPerimeter=0;endArrow=none;endFill=0;" edge="1" parent="1" source="5ei2r8V7DqKCzxqT37iV-81" target="5ei2r8V7DqKCzxqT37iV-72">
          <mxGeometry relative="1" as="geometry" />
        </mxCell>
        <mxCell id="5ei2r8V7DqKCzxqT37iV-84" style="rounded=0;orthogonalLoop=1;jettySize=auto;html=1;exitX=1;exitY=0.5;exitDx=0;exitDy=0;entryX=0;entryY=0.5;entryDx=0;entryDy=0;endArrow=none;endFill=0;" edge="1" parent="1" target="5ei2r8V7DqKCzxqT37iV-1">
          <mxGeometry relative="1" as="geometry">
            <mxPoint x="265" y="340" as="sourcePoint" />
          </mxGeometry>
        </mxCell>
        <mxCell id="5ei2r8V7DqKCzxqT37iV-85" style="rounded=0;orthogonalLoop=1;jettySize=auto;html=1;exitX=0;exitY=0.5;exitDx=0;exitDy=0;entryX=1;entryY=0.5;entryDx=0;entryDy=0;endArrow=none;endFill=0;" edge="1" parent="1" target="5ei2r8V7DqKCzxqT37iV-21">
          <mxGeometry relative="1" as="geometry">
            <mxPoint x="105" y="340" as="sourcePoint" />
          </mxGeometry>
        </mxCell>
        <mxCell id="5ei2r8V7DqKCzxqT37iV-86" style="edgeStyle=orthogonalEdgeStyle;rounded=0;orthogonalLoop=1;jettySize=auto;html=1;exitX=0.5;exitY=1;exitDx=0;exitDy=0;entryX=0.369;entryY=0.028;entryDx=0;entryDy=0;entryPerimeter=0;endArrow=none;endFill=0;" edge="1" parent="1" target="5ei2r8V7DqKCzxqT37iV-34">
          <mxGeometry relative="1" as="geometry">
            <mxPoint x="-520" y="540" as="sourcePoint" />
            <Array as="points">
              <mxPoint x="-521" y="604" />
            </Array>
          </mxGeometry>
        </mxCell>
        <mxCell id="5ei2r8V7DqKCzxqT37iV-89" value="" style="edgeStyle=orthogonalEdgeStyle;rounded=0;orthogonalLoop=1;jettySize=auto;html=1;exitX=0;exitY=0.5;exitDx=0;exitDy=0;entryX=0.5;entryY=0;entryDx=0;entryDy=0;endArrow=none;endFill=0;" edge="1" parent="1" source="5ei2r8V7DqKCzxqT37iV-21">
          <mxGeometry relative="1" as="geometry">
            <mxPoint x="-310" y="340" as="sourcePoint" />
            <mxPoint x="-520" y="480" as="targetPoint" />
            <Array as="points">
              <mxPoint x="-520" y="340" />
            </Array>
          </mxGeometry>
        </mxCell>
        <mxCell id="5ei2r8V7DqKCzxqT37iV-96" style="rounded=0;orthogonalLoop=1;jettySize=auto;html=1;exitX=0.5;exitY=1;exitDx=0;exitDy=0;entryX=0.5;entryY=0;entryDx=0;entryDy=0;endArrow=none;endFill=0;" edge="1" parent="1" source="5ei2r8V7DqKCzxqT37iV-93" target="5ei2r8V7DqKCzxqT37iV-49">
          <mxGeometry relative="1" as="geometry" />
        </mxCell>
        <mxCell id="5ei2r8V7DqKCzxqT37iV-93" value="&lt;font style=&quot;font-size: 17px;&quot;&gt;Make&lt;/font&gt;" style="shape=rhombus;perimeter=rhombusPerimeter;whiteSpace=wrap;html=1;align=center;" vertex="1" parent="1">
          <mxGeometry x="-580" y="890" width="120" height="60" as="geometry" />
        </mxCell>
        <mxCell id="5ei2r8V7DqKCzxqT37iV-97" style="rounded=0;orthogonalLoop=1;jettySize=auto;html=1;exitX=0.5;exitY=0;exitDx=0;exitDy=0;entryX=0.378;entryY=1.017;entryDx=0;entryDy=0;entryPerimeter=0;endArrow=none;endFill=0;" edge="1" parent="1" source="5ei2r8V7DqKCzxqT37iV-93" target="5ei2r8V7DqKCzxqT37iV-34">
          <mxGeometry relative="1" as="geometry" />
        </mxCell>
        <mxCell id="5ei2r8V7DqKCzxqT37iV-98" value="&lt;span style=&quot;font-size: 16px;&quot;&gt;reserve&lt;/span&gt;" style="shape=rhombus;perimeter=rhombusPerimeter;whiteSpace=wrap;html=1;align=center;" vertex="1" parent="1">
          <mxGeometry x="-580" y="480" width="120" height="60" as="geometry" />
        </mxCell>
        <mxCell id="5ei2r8V7DqKCzxqT37iV-102" style="rounded=0;orthogonalLoop=1;jettySize=auto;html=1;exitX=0;exitY=0.5;exitDx=0;exitDy=0;entryX=1;entryY=0;entryDx=0;entryDy=0;endArrow=none;endFill=0;" edge="1" parent="1" source="5ei2r8V7DqKCzxqT37iV-100" target="5ei2r8V7DqKCzxqT37iV-61">
          <mxGeometry relative="1" as="geometry" />
        </mxCell>
        <mxCell id="5ei2r8V7DqKCzxqT37iV-100" value="&lt;font style=&quot;font-size: 16px;&quot;&gt;Write&lt;/font&gt;" style="shape=rhombus;perimeter=rhombusPerimeter;whiteSpace=wrap;html=1;align=center;rotation=-30;" vertex="1" parent="1">
          <mxGeometry x="316.16" y="425.67" width="140" height="70" as="geometry" />
        </mxCell>
        <mxCell id="5ei2r8V7DqKCzxqT37iV-104" value="&lt;span style=&quot;font-size: 16px;&quot;&gt;put&lt;/span&gt;" style="shape=rhombus;perimeter=rhombusPerimeter;whiteSpace=wrap;html=1;align=center;" vertex="1" parent="1">
          <mxGeometry x="105" y="300" width="160" height="80" as="geometry" />
        </mxCell>
        <mxCell id="5ei2r8V7DqKCzxqT37iV-106" style="rounded=0;orthogonalLoop=1;jettySize=auto;html=1;exitX=1;exitY=0.5;exitDx=0;exitDy=0;entryX=0;entryY=0;entryDx=0;entryDy=0;endArrow=none;endFill=0;" edge="1" parent="1" source="5ei2r8V7DqKCzxqT37iV-105" target="5ei2r8V7DqKCzxqT37iV-61">
          <mxGeometry relative="1" as="geometry" />
        </mxCell>
        <mxCell id="5ei2r8V7DqKCzxqT37iV-107" style="rounded=0;orthogonalLoop=1;jettySize=auto;html=1;exitX=0;exitY=0.5;exitDx=0;exitDy=0;entryX=1;entryY=1;entryDx=0;entryDy=0;endArrow=none;endFill=0;" edge="1" parent="1" source="5ei2r8V7DqKCzxqT37iV-105" target="5ei2r8V7DqKCzxqT37iV-21">
          <mxGeometry relative="1" as="geometry" />
        </mxCell>
        <mxCell id="5ei2r8V7DqKCzxqT37iV-105" value="&lt;font style=&quot;font-size: 16px;&quot;&gt;rate&lt;/font&gt;" style="shape=rhombus;perimeter=rhombusPerimeter;whiteSpace=wrap;html=1;align=center;rotation=35;" vertex="1" parent="1">
          <mxGeometry x="-135" y="460" width="120" height="60" as="geometry" />
        </mxCell>
        <mxCell id="5ei2r8V7DqKCzxqT37iV-108" value="&lt;font style=&quot;font-size: 16px;&quot;&gt;send&lt;/font&gt;" style="shape=rhombus;perimeter=rhombusPerimeter;whiteSpace=wrap;html=1;align=center;" vertex="1" parent="1">
          <mxGeometry x="550" y="575" width="120" height="60" as="geometry" />
        </mxCell>
        <mxCell id="5ei2r8V7DqKCzxqT37iV-110" style="rounded=0;orthogonalLoop=1;jettySize=auto;html=1;exitX=0.5;exitY=1;exitDx=0;exitDy=0;entryX=0.596;entryY=0.014;entryDx=0;entryDy=0;entryPerimeter=0;endArrow=none;endFill=0;" edge="1" parent="1" source="5ei2r8V7DqKCzxqT37iV-108" target="5ei2r8V7DqKCzxqT37iV-72">
          <mxGeometry relative="1" as="geometry" />
        </mxCell>
      </root>
    </mxGraphModel>
  </diagram>
</mxfile>
